M48
;DRILL file {KiCad 5.0.0-rc3-unknown-14ce5182~65~ubuntu18.04.1} date Sun Jul 15 20:01:31 2018
;FORMAT={-:-/ absolute / inch / decimal}
FMAT,2
INCH,TZ
T1C0.0157
T2C0.0315
T3C0.0394
%
G90
G05
M72
T1
X2.6Y-2.75
X2.7Y-2.775
X2.74Y-2.8
X2.8Y-2.575
X2.84Y-2.7665
X3.2598Y-2.5502
X3.34Y-2.51
X3.35Y-2.6
X3.4Y-2.625
X3.45Y-2.8
T2
X2.8Y-2.4
X2.8Y-2.7
X2.9Y-2.4
X2.9Y-2.7
X3.Y-2.4
X3.Y-2.7
X3.1Y-2.4
X3.1Y-2.7
X3.2Y-2.4
X3.2Y-2.7
X3.3Y-2.4
X3.3Y-2.7
X3.4Y-2.4
X3.4Y-2.7
T3
X2.5Y-2.4
X2.5Y-2.5
X2.5Y-2.6
X2.5Y-2.7
X2.5Y-2.8
X2.5Y-2.9
X3.6Y-2.4
X3.6Y-2.5
X3.6Y-2.6
X3.6Y-2.7
X3.6Y-2.8
X3.6Y-2.9
X2.8Y-2.9
X2.9Y-2.9
X3.Y-2.9
X3.1Y-2.9
X3.2Y-2.9
T0
M30
