G04 #@! TF.GenerationSoftware,KiCad,Pcbnew,5.0.0-rc3-unknown-14ce5182~65~ubuntu18.04.1*
G04 #@! TF.CreationDate,2018-07-15T20:03:12+01:00*
G04 #@! TF.ProjectId,SEN-14066-adapter,53454E2D31343036362D616461707465,rev?*
G04 #@! TF.SameCoordinates,Original*
G04 #@! TF.FileFunction,Copper,L1,Top,Signal*
G04 #@! TF.FilePolarity,Positive*
%FSLAX46Y46*%
G04 Gerber Fmt 4.6, Leading zero omitted, Abs format (unit mm)*
G04 Created by KiCad (PCBNEW 5.0.0-rc3-unknown-14ce5182~65~ubuntu18.04.1) date Sun Jul 15 20:03:12 2018*
%MOMM*%
%LPD*%
G01*
G04 APERTURE LIST*
G04 #@! TA.AperFunction,ComponentPad*
%ADD10R,1.600000X1.600000*%
G04 #@! TD*
G04 #@! TA.AperFunction,ComponentPad*
%ADD11O,1.600000X1.600000*%
G04 #@! TD*
G04 #@! TA.AperFunction,ComponentPad*
%ADD12R,1.700000X1.700000*%
G04 #@! TD*
G04 #@! TA.AperFunction,ComponentPad*
%ADD13O,1.700000X1.700000*%
G04 #@! TD*
G04 #@! TA.AperFunction,Conductor*
%ADD14C,0.100000*%
G04 #@! TD*
G04 #@! TA.AperFunction,SMDPad,CuDef*
%ADD15C,0.950000*%
G04 #@! TD*
G04 #@! TA.AperFunction,ViaPad*
%ADD16C,0.800000*%
G04 #@! TD*
G04 #@! TA.AperFunction,Conductor*
%ADD17C,0.250000*%
G04 #@! TD*
G04 #@! TA.AperFunction,Conductor*
%ADD18C,0.500000*%
G04 #@! TD*
G04 APERTURE END LIST*
D10*
G04 #@! TO.P,U1,1*
G04 #@! TO.N,Net-(R2-Pad1)*
X71120000Y-68580000D03*
D11*
G04 #@! TO.P,U1,8*
G04 #@! TO.N,Net-(U1-Pad5)*
X86360000Y-60960000D03*
G04 #@! TO.P,U1,2*
G04 #@! TO.N,Net-(U1-Pad2)*
X73660000Y-68580000D03*
G04 #@! TO.P,U1,9*
G04 #@! TO.N,Net-(J3-Pad5)*
X83820000Y-60960000D03*
G04 #@! TO.P,U1,3*
G04 #@! TO.N,Net-(U1-Pad2)*
X76200000Y-68580000D03*
G04 #@! TO.P,U1,10*
G04 #@! TO.N,N/C*
X81280000Y-60960000D03*
G04 #@! TO.P,U1,4*
G04 #@! TO.N,Net-(R3-Pad2)*
X78740000Y-68580000D03*
G04 #@! TO.P,U1,11*
G04 #@! TO.N,N/C*
X78740000Y-60960000D03*
G04 #@! TO.P,U1,5*
G04 #@! TO.N,Net-(U1-Pad5)*
X81280000Y-68580000D03*
G04 #@! TO.P,U1,12*
G04 #@! TO.N,N/C*
X76200000Y-60960000D03*
G04 #@! TO.P,U1,6*
G04 #@! TO.N,RXD*
X83820000Y-68580000D03*
G04 #@! TO.P,U1,13*
G04 #@! TO.N,N/C*
X73660000Y-60960000D03*
G04 #@! TO.P,U1,7*
G04 #@! TO.N,GND*
X86360000Y-68580000D03*
G04 #@! TO.P,U1,14*
G04 #@! TO.N,Vcc*
X71120000Y-60960000D03*
G04 #@! TD*
D12*
G04 #@! TO.P,J1,1*
G04 #@! TO.N,GND*
X63500000Y-73660000D03*
D13*
G04 #@! TO.P,J1,2*
G04 #@! TO.N,Net-(J1-Pad2)*
X63500000Y-71120000D03*
G04 #@! TO.P,J1,3*
G04 #@! TO.N,Vcc*
X63500000Y-68580000D03*
G04 #@! TO.P,J1,4*
G04 #@! TO.N,TXD*
X63500000Y-66040000D03*
G04 #@! TO.P,J1,5*
G04 #@! TO.N,RXD*
X63500000Y-63500000D03*
G04 #@! TO.P,J1,6*
G04 #@! TO.N,Net-(J1-Pad6)*
X63500000Y-60960000D03*
G04 #@! TD*
D12*
G04 #@! TO.P,J2,1*
G04 #@! TO.N,GND*
X81280000Y-73660000D03*
D13*
G04 #@! TO.P,J2,2*
G04 #@! TO.N,RXD*
X78740000Y-73660000D03*
G04 #@! TO.P,J2,3*
G04 #@! TO.N,TXD*
X76200000Y-73660000D03*
G04 #@! TO.P,J2,4*
G04 #@! TO.N,Vcc*
X73660000Y-73660000D03*
G04 #@! TO.P,J2,5*
G04 #@! TO.N,Net-(J2-Pad5)*
X71120000Y-73660000D03*
G04 #@! TD*
G04 #@! TO.P,J3,6*
G04 #@! TO.N,Net-(J3-Pad6)*
X91440000Y-60960000D03*
G04 #@! TO.P,J3,5*
G04 #@! TO.N,Net-(J3-Pad5)*
X91440000Y-63500000D03*
G04 #@! TO.P,J3,4*
G04 #@! TO.N,Net-(J3-Pad4)*
X91440000Y-66040000D03*
G04 #@! TO.P,J3,3*
G04 #@! TO.N,Vcc*
X91440000Y-68580000D03*
G04 #@! TO.P,J3,2*
G04 #@! TO.N,Net-(J3-Pad2)*
X91440000Y-71120000D03*
D12*
G04 #@! TO.P,J3,1*
G04 #@! TO.N,GND*
X91440000Y-73660000D03*
G04 #@! TD*
D14*
G04 #@! TO.N,TXD*
G04 #@! TO.C,R1*
G36*
X67570779Y-65516144D02*
X67593834Y-65519563D01*
X67616443Y-65525227D01*
X67638387Y-65533079D01*
X67659457Y-65543044D01*
X67679448Y-65555026D01*
X67698168Y-65568910D01*
X67715438Y-65584562D01*
X67731090Y-65601832D01*
X67744974Y-65620552D01*
X67756956Y-65640543D01*
X67766921Y-65661613D01*
X67774773Y-65683557D01*
X67780437Y-65706166D01*
X67783856Y-65729221D01*
X67785000Y-65752500D01*
X67785000Y-66327500D01*
X67783856Y-66350779D01*
X67780437Y-66373834D01*
X67774773Y-66396443D01*
X67766921Y-66418387D01*
X67756956Y-66439457D01*
X67744974Y-66459448D01*
X67731090Y-66478168D01*
X67715438Y-66495438D01*
X67698168Y-66511090D01*
X67679448Y-66524974D01*
X67659457Y-66536956D01*
X67638387Y-66546921D01*
X67616443Y-66554773D01*
X67593834Y-66560437D01*
X67570779Y-66563856D01*
X67547500Y-66565000D01*
X67072500Y-66565000D01*
X67049221Y-66563856D01*
X67026166Y-66560437D01*
X67003557Y-66554773D01*
X66981613Y-66546921D01*
X66960543Y-66536956D01*
X66940552Y-66524974D01*
X66921832Y-66511090D01*
X66904562Y-66495438D01*
X66888910Y-66478168D01*
X66875026Y-66459448D01*
X66863044Y-66439457D01*
X66853079Y-66418387D01*
X66845227Y-66396443D01*
X66839563Y-66373834D01*
X66836144Y-66350779D01*
X66835000Y-66327500D01*
X66835000Y-65752500D01*
X66836144Y-65729221D01*
X66839563Y-65706166D01*
X66845227Y-65683557D01*
X66853079Y-65661613D01*
X66863044Y-65640543D01*
X66875026Y-65620552D01*
X66888910Y-65601832D01*
X66904562Y-65584562D01*
X66921832Y-65568910D01*
X66940552Y-65555026D01*
X66960543Y-65543044D01*
X66981613Y-65533079D01*
X67003557Y-65525227D01*
X67026166Y-65519563D01*
X67049221Y-65516144D01*
X67072500Y-65515000D01*
X67547500Y-65515000D01*
X67570779Y-65516144D01*
X67570779Y-65516144D01*
G37*
D15*
G04 #@! TD*
G04 #@! TO.P,R1,1*
G04 #@! TO.N,TXD*
X67310000Y-66040000D03*
D14*
G04 #@! TO.N,Net-(J3-Pad4)*
G04 #@! TO.C,R1*
G36*
X67570779Y-63766144D02*
X67593834Y-63769563D01*
X67616443Y-63775227D01*
X67638387Y-63783079D01*
X67659457Y-63793044D01*
X67679448Y-63805026D01*
X67698168Y-63818910D01*
X67715438Y-63834562D01*
X67731090Y-63851832D01*
X67744974Y-63870552D01*
X67756956Y-63890543D01*
X67766921Y-63911613D01*
X67774773Y-63933557D01*
X67780437Y-63956166D01*
X67783856Y-63979221D01*
X67785000Y-64002500D01*
X67785000Y-64577500D01*
X67783856Y-64600779D01*
X67780437Y-64623834D01*
X67774773Y-64646443D01*
X67766921Y-64668387D01*
X67756956Y-64689457D01*
X67744974Y-64709448D01*
X67731090Y-64728168D01*
X67715438Y-64745438D01*
X67698168Y-64761090D01*
X67679448Y-64774974D01*
X67659457Y-64786956D01*
X67638387Y-64796921D01*
X67616443Y-64804773D01*
X67593834Y-64810437D01*
X67570779Y-64813856D01*
X67547500Y-64815000D01*
X67072500Y-64815000D01*
X67049221Y-64813856D01*
X67026166Y-64810437D01*
X67003557Y-64804773D01*
X66981613Y-64796921D01*
X66960543Y-64786956D01*
X66940552Y-64774974D01*
X66921832Y-64761090D01*
X66904562Y-64745438D01*
X66888910Y-64728168D01*
X66875026Y-64709448D01*
X66863044Y-64689457D01*
X66853079Y-64668387D01*
X66845227Y-64646443D01*
X66839563Y-64623834D01*
X66836144Y-64600779D01*
X66835000Y-64577500D01*
X66835000Y-64002500D01*
X66836144Y-63979221D01*
X66839563Y-63956166D01*
X66845227Y-63933557D01*
X66853079Y-63911613D01*
X66863044Y-63890543D01*
X66875026Y-63870552D01*
X66888910Y-63851832D01*
X66904562Y-63834562D01*
X66921832Y-63818910D01*
X66940552Y-63805026D01*
X66960543Y-63793044D01*
X66981613Y-63783079D01*
X67003557Y-63775227D01*
X67026166Y-63769563D01*
X67049221Y-63766144D01*
X67072500Y-63765000D01*
X67547500Y-63765000D01*
X67570779Y-63766144D01*
X67570779Y-63766144D01*
G37*
D15*
G04 #@! TD*
G04 #@! TO.P,R1,2*
G04 #@! TO.N,Net-(J3-Pad4)*
X67310000Y-64290000D03*
D14*
G04 #@! TO.N,TXD*
G04 #@! TO.C,R2*
G36*
X67570779Y-71386144D02*
X67593834Y-71389563D01*
X67616443Y-71395227D01*
X67638387Y-71403079D01*
X67659457Y-71413044D01*
X67679448Y-71425026D01*
X67698168Y-71438910D01*
X67715438Y-71454562D01*
X67731090Y-71471832D01*
X67744974Y-71490552D01*
X67756956Y-71510543D01*
X67766921Y-71531613D01*
X67774773Y-71553557D01*
X67780437Y-71576166D01*
X67783856Y-71599221D01*
X67785000Y-71622500D01*
X67785000Y-72197500D01*
X67783856Y-72220779D01*
X67780437Y-72243834D01*
X67774773Y-72266443D01*
X67766921Y-72288387D01*
X67756956Y-72309457D01*
X67744974Y-72329448D01*
X67731090Y-72348168D01*
X67715438Y-72365438D01*
X67698168Y-72381090D01*
X67679448Y-72394974D01*
X67659457Y-72406956D01*
X67638387Y-72416921D01*
X67616443Y-72424773D01*
X67593834Y-72430437D01*
X67570779Y-72433856D01*
X67547500Y-72435000D01*
X67072500Y-72435000D01*
X67049221Y-72433856D01*
X67026166Y-72430437D01*
X67003557Y-72424773D01*
X66981613Y-72416921D01*
X66960543Y-72406956D01*
X66940552Y-72394974D01*
X66921832Y-72381090D01*
X66904562Y-72365438D01*
X66888910Y-72348168D01*
X66875026Y-72329448D01*
X66863044Y-72309457D01*
X66853079Y-72288387D01*
X66845227Y-72266443D01*
X66839563Y-72243834D01*
X66836144Y-72220779D01*
X66835000Y-72197500D01*
X66835000Y-71622500D01*
X66836144Y-71599221D01*
X66839563Y-71576166D01*
X66845227Y-71553557D01*
X66853079Y-71531613D01*
X66863044Y-71510543D01*
X66875026Y-71490552D01*
X66888910Y-71471832D01*
X66904562Y-71454562D01*
X66921832Y-71438910D01*
X66940552Y-71425026D01*
X66960543Y-71413044D01*
X66981613Y-71403079D01*
X67003557Y-71395227D01*
X67026166Y-71389563D01*
X67049221Y-71386144D01*
X67072500Y-71385000D01*
X67547500Y-71385000D01*
X67570779Y-71386144D01*
X67570779Y-71386144D01*
G37*
D15*
G04 #@! TD*
G04 #@! TO.P,R2,2*
G04 #@! TO.N,TXD*
X67310000Y-71910000D03*
D14*
G04 #@! TO.N,Net-(R2-Pad1)*
G04 #@! TO.C,R2*
G36*
X67570779Y-73136144D02*
X67593834Y-73139563D01*
X67616443Y-73145227D01*
X67638387Y-73153079D01*
X67659457Y-73163044D01*
X67679448Y-73175026D01*
X67698168Y-73188910D01*
X67715438Y-73204562D01*
X67731090Y-73221832D01*
X67744974Y-73240552D01*
X67756956Y-73260543D01*
X67766921Y-73281613D01*
X67774773Y-73303557D01*
X67780437Y-73326166D01*
X67783856Y-73349221D01*
X67785000Y-73372500D01*
X67785000Y-73947500D01*
X67783856Y-73970779D01*
X67780437Y-73993834D01*
X67774773Y-74016443D01*
X67766921Y-74038387D01*
X67756956Y-74059457D01*
X67744974Y-74079448D01*
X67731090Y-74098168D01*
X67715438Y-74115438D01*
X67698168Y-74131090D01*
X67679448Y-74144974D01*
X67659457Y-74156956D01*
X67638387Y-74166921D01*
X67616443Y-74174773D01*
X67593834Y-74180437D01*
X67570779Y-74183856D01*
X67547500Y-74185000D01*
X67072500Y-74185000D01*
X67049221Y-74183856D01*
X67026166Y-74180437D01*
X67003557Y-74174773D01*
X66981613Y-74166921D01*
X66960543Y-74156956D01*
X66940552Y-74144974D01*
X66921832Y-74131090D01*
X66904562Y-74115438D01*
X66888910Y-74098168D01*
X66875026Y-74079448D01*
X66863044Y-74059457D01*
X66853079Y-74038387D01*
X66845227Y-74016443D01*
X66839563Y-73993834D01*
X66836144Y-73970779D01*
X66835000Y-73947500D01*
X66835000Y-73372500D01*
X66836144Y-73349221D01*
X66839563Y-73326166D01*
X66845227Y-73303557D01*
X66853079Y-73281613D01*
X66863044Y-73260543D01*
X66875026Y-73240552D01*
X66888910Y-73221832D01*
X66904562Y-73204562D01*
X66921832Y-73188910D01*
X66940552Y-73175026D01*
X66960543Y-73163044D01*
X66981613Y-73153079D01*
X67003557Y-73145227D01*
X67026166Y-73139563D01*
X67049221Y-73136144D01*
X67072500Y-73135000D01*
X67547500Y-73135000D01*
X67570779Y-73136144D01*
X67570779Y-73136144D01*
G37*
D15*
G04 #@! TD*
G04 #@! TO.P,R2,1*
G04 #@! TO.N,Net-(R2-Pad1)*
X67310000Y-73660000D03*
D14*
G04 #@! TO.N,Net-(J3-Pad4)*
G04 #@! TO.C,R3*
G36*
X89795779Y-64246144D02*
X89818834Y-64249563D01*
X89841443Y-64255227D01*
X89863387Y-64263079D01*
X89884457Y-64273044D01*
X89904448Y-64285026D01*
X89923168Y-64298910D01*
X89940438Y-64314562D01*
X89956090Y-64331832D01*
X89969974Y-64350552D01*
X89981956Y-64370543D01*
X89991921Y-64391613D01*
X89999773Y-64413557D01*
X90005437Y-64436166D01*
X90008856Y-64459221D01*
X90010000Y-64482500D01*
X90010000Y-65057500D01*
X90008856Y-65080779D01*
X90005437Y-65103834D01*
X89999773Y-65126443D01*
X89991921Y-65148387D01*
X89981956Y-65169457D01*
X89969974Y-65189448D01*
X89956090Y-65208168D01*
X89940438Y-65225438D01*
X89923168Y-65241090D01*
X89904448Y-65254974D01*
X89884457Y-65266956D01*
X89863387Y-65276921D01*
X89841443Y-65284773D01*
X89818834Y-65290437D01*
X89795779Y-65293856D01*
X89772500Y-65295000D01*
X89297500Y-65295000D01*
X89274221Y-65293856D01*
X89251166Y-65290437D01*
X89228557Y-65284773D01*
X89206613Y-65276921D01*
X89185543Y-65266956D01*
X89165552Y-65254974D01*
X89146832Y-65241090D01*
X89129562Y-65225438D01*
X89113910Y-65208168D01*
X89100026Y-65189448D01*
X89088044Y-65169457D01*
X89078079Y-65148387D01*
X89070227Y-65126443D01*
X89064563Y-65103834D01*
X89061144Y-65080779D01*
X89060000Y-65057500D01*
X89060000Y-64482500D01*
X89061144Y-64459221D01*
X89064563Y-64436166D01*
X89070227Y-64413557D01*
X89078079Y-64391613D01*
X89088044Y-64370543D01*
X89100026Y-64350552D01*
X89113910Y-64331832D01*
X89129562Y-64314562D01*
X89146832Y-64298910D01*
X89165552Y-64285026D01*
X89185543Y-64273044D01*
X89206613Y-64263079D01*
X89228557Y-64255227D01*
X89251166Y-64249563D01*
X89274221Y-64246144D01*
X89297500Y-64245000D01*
X89772500Y-64245000D01*
X89795779Y-64246144D01*
X89795779Y-64246144D01*
G37*
D15*
G04 #@! TD*
G04 #@! TO.P,R3,1*
G04 #@! TO.N,Net-(J3-Pad4)*
X89535000Y-64770000D03*
D14*
G04 #@! TO.N,Net-(R3-Pad2)*
G04 #@! TO.C,R3*
G36*
X89795779Y-65996144D02*
X89818834Y-65999563D01*
X89841443Y-66005227D01*
X89863387Y-66013079D01*
X89884457Y-66023044D01*
X89904448Y-66035026D01*
X89923168Y-66048910D01*
X89940438Y-66064562D01*
X89956090Y-66081832D01*
X89969974Y-66100552D01*
X89981956Y-66120543D01*
X89991921Y-66141613D01*
X89999773Y-66163557D01*
X90005437Y-66186166D01*
X90008856Y-66209221D01*
X90010000Y-66232500D01*
X90010000Y-66807500D01*
X90008856Y-66830779D01*
X90005437Y-66853834D01*
X89999773Y-66876443D01*
X89991921Y-66898387D01*
X89981956Y-66919457D01*
X89969974Y-66939448D01*
X89956090Y-66958168D01*
X89940438Y-66975438D01*
X89923168Y-66991090D01*
X89904448Y-67004974D01*
X89884457Y-67016956D01*
X89863387Y-67026921D01*
X89841443Y-67034773D01*
X89818834Y-67040437D01*
X89795779Y-67043856D01*
X89772500Y-67045000D01*
X89297500Y-67045000D01*
X89274221Y-67043856D01*
X89251166Y-67040437D01*
X89228557Y-67034773D01*
X89206613Y-67026921D01*
X89185543Y-67016956D01*
X89165552Y-67004974D01*
X89146832Y-66991090D01*
X89129562Y-66975438D01*
X89113910Y-66958168D01*
X89100026Y-66939448D01*
X89088044Y-66919457D01*
X89078079Y-66898387D01*
X89070227Y-66876443D01*
X89064563Y-66853834D01*
X89061144Y-66830779D01*
X89060000Y-66807500D01*
X89060000Y-66232500D01*
X89061144Y-66209221D01*
X89064563Y-66186166D01*
X89070227Y-66163557D01*
X89078079Y-66141613D01*
X89088044Y-66120543D01*
X89100026Y-66100552D01*
X89113910Y-66081832D01*
X89129562Y-66064562D01*
X89146832Y-66048910D01*
X89165552Y-66035026D01*
X89185543Y-66023044D01*
X89206613Y-66013079D01*
X89228557Y-66005227D01*
X89251166Y-65999563D01*
X89274221Y-65996144D01*
X89297500Y-65995000D01*
X89772500Y-65995000D01*
X89795779Y-65996144D01*
X89795779Y-65996144D01*
G37*
D15*
G04 #@! TD*
G04 #@! TO.P,R3,2*
G04 #@! TO.N,Net-(R3-Pad2)*
X89535000Y-66520000D03*
D16*
G04 #@! TO.N,Net-(U1-Pad5)*
X84836000Y-63754000D03*
X82799347Y-64774653D03*
G04 #@! TO.N,Net-(J3-Pad4)*
X85090000Y-66040000D03*
X71120000Y-65405000D03*
G04 #@! TO.N,GND*
X69596000Y-71120000D03*
X72136000Y-70270000D03*
G04 #@! TO.N,Vcc*
X87630000Y-71120000D03*
G04 #@! TO.N,Net-(R2-Pad1)*
X66040000Y-69850000D03*
X68580000Y-70485000D03*
G04 #@! TO.N,Net-(R3-Pad2)*
X86360000Y-66675000D03*
G04 #@! TD*
D17*
G04 #@! TO.N,Net-(U1-Pad2)*
X73660000Y-68580000D02*
X76200000Y-68580000D01*
G04 #@! TO.N,Net-(U1-Pad5)*
X85560001Y-61759999D02*
X85560001Y-63029999D01*
X86360000Y-60960000D02*
X85560001Y-61759999D01*
X85560001Y-63029999D02*
X84836000Y-63754000D01*
X82799347Y-67060653D02*
X81280000Y-68580000D01*
X82799347Y-64774653D02*
X82799347Y-67060653D01*
G04 #@! TO.N,Net-(J3-Pad5)*
X82804000Y-62992000D02*
X82804000Y-61976000D01*
X84328000Y-64516000D02*
X82804000Y-62992000D01*
X85344000Y-64516000D02*
X84328000Y-64516000D01*
X91440000Y-63500000D02*
X86360000Y-63500000D01*
X82804000Y-61976000D02*
X83820000Y-60960000D01*
X86360000Y-63500000D02*
X85344000Y-64516000D01*
G04 #@! TO.N,Net-(J3-Pad4)*
X90170000Y-64770000D02*
X91440000Y-66040000D01*
X89535000Y-64770000D02*
X90170000Y-64770000D01*
X89535000Y-64770000D02*
X86360000Y-64770000D01*
X86360000Y-64770000D02*
X85090000Y-66040000D01*
X70005000Y-64290000D02*
X67310000Y-64290000D01*
X71120000Y-65405000D02*
X70005000Y-64290000D01*
D18*
G04 #@! TO.N,GND*
X71286000Y-71120000D02*
X72136000Y-70270000D01*
X69596000Y-71120000D02*
X71286000Y-71120000D01*
G04 #@! TO.N,Vcc*
X91440000Y-68580000D02*
X90170000Y-68580000D01*
X90170000Y-68580000D02*
X87630000Y-71120000D01*
D17*
G04 #@! TO.N,TXD*
X63500000Y-66040000D02*
X67310000Y-66040000D01*
X74450000Y-71910000D02*
X76200000Y-73660000D01*
X67310000Y-71910000D02*
X74450000Y-71910000D01*
X67310000Y-66040000D02*
X67310000Y-71910000D01*
G04 #@! TO.N,RXD*
X64349999Y-62650001D02*
X69000001Y-62650001D01*
X63500000Y-63500000D02*
X64349999Y-62650001D01*
X69000001Y-62650001D02*
X69215000Y-62865000D01*
X69215000Y-62865000D02*
X81915000Y-62865000D01*
X83820000Y-64770000D02*
X83820000Y-68580000D01*
X81915000Y-62865000D02*
X83820000Y-64770000D01*
X78740000Y-73660000D02*
X83820000Y-68580000D01*
G04 #@! TO.N,Net-(R2-Pad1)*
X67310000Y-73660000D02*
X66040000Y-73660000D01*
X66040000Y-73660000D02*
X66040000Y-69850000D01*
X70485000Y-68580000D02*
X71120000Y-68580000D01*
X68580000Y-70485000D02*
X70485000Y-68580000D01*
G04 #@! TO.N,Net-(R3-Pad2)*
X89535000Y-66520000D02*
X86515000Y-66520000D01*
X86515000Y-66520000D02*
X86360000Y-66675000D01*
G04 #@! TD*
M02*
