G04 #@! TF.GenerationSoftware,KiCad,Pcbnew,5.0.0-rc3-unknown-14ce5182~65~ubuntu18.04.1*
G04 #@! TF.CreationDate,2018-07-15T20:03:12+01:00*
G04 #@! TF.ProjectId,SEN-14066-adapter,53454E2D31343036362D616461707465,rev?*
G04 #@! TF.SameCoordinates,Original*
G04 #@! TF.FileFunction,Legend,Bot*
G04 #@! TF.FilePolarity,Positive*
%FSLAX46Y46*%
G04 Gerber Fmt 4.6, Leading zero omitted, Abs format (unit mm)*
G04 Created by KiCad (PCBNEW 5.0.0-rc3-unknown-14ce5182~65~ubuntu18.04.1) date Sun Jul 15 20:03:12 2018*
%MOMM*%
%LPD*%
G01*
G04 APERTURE LIST*
%ADD10C,0.150000*%
%ADD11C,0.120000*%
G04 APERTURE END LIST*
D10*
X89136666Y-63524761D02*
X88993809Y-63572380D01*
X88755714Y-63572380D01*
X88660476Y-63524761D01*
X88612857Y-63477142D01*
X88565238Y-63381904D01*
X88565238Y-63286666D01*
X88612857Y-63191428D01*
X88660476Y-63143809D01*
X88755714Y-63096190D01*
X88946190Y-63048571D01*
X89041428Y-63000952D01*
X89089047Y-62953333D01*
X89136666Y-62858095D01*
X89136666Y-62762857D01*
X89089047Y-62667619D01*
X89041428Y-62620000D01*
X88946190Y-62572380D01*
X88708095Y-62572380D01*
X88565238Y-62620000D01*
X88136666Y-63048571D02*
X87803333Y-63048571D01*
X87660476Y-63572380D02*
X88136666Y-63572380D01*
X88136666Y-62572380D01*
X87660476Y-62572380D01*
X87231904Y-63572380D02*
X87231904Y-62572380D01*
X86660476Y-63572380D01*
X86660476Y-62572380D01*
X86184285Y-63191428D02*
X85422380Y-63191428D01*
X84422380Y-63572380D02*
X84993809Y-63572380D01*
X84708095Y-63572380D02*
X84708095Y-62572380D01*
X84803333Y-62715238D01*
X84898571Y-62810476D01*
X84993809Y-62858095D01*
X83565238Y-62905714D02*
X83565238Y-63572380D01*
X83803333Y-62524761D02*
X84041428Y-63239047D01*
X83422380Y-63239047D01*
X82850952Y-62572380D02*
X82755714Y-62572380D01*
X82660476Y-62620000D01*
X82612857Y-62667619D01*
X82565238Y-62762857D01*
X82517619Y-62953333D01*
X82517619Y-63191428D01*
X82565238Y-63381904D01*
X82612857Y-63477142D01*
X82660476Y-63524761D01*
X82755714Y-63572380D01*
X82850952Y-63572380D01*
X82946190Y-63524761D01*
X82993809Y-63477142D01*
X83041428Y-63381904D01*
X83089047Y-63191428D01*
X83089047Y-62953333D01*
X83041428Y-62762857D01*
X82993809Y-62667619D01*
X82946190Y-62620000D01*
X82850952Y-62572380D01*
X81660476Y-62572380D02*
X81850952Y-62572380D01*
X81946190Y-62620000D01*
X81993809Y-62667619D01*
X82089047Y-62810476D01*
X82136666Y-63000952D01*
X82136666Y-63381904D01*
X82089047Y-63477142D01*
X82041428Y-63524761D01*
X81946190Y-63572380D01*
X81755714Y-63572380D01*
X81660476Y-63524761D01*
X81612857Y-63477142D01*
X81565238Y-63381904D01*
X81565238Y-63143809D01*
X81612857Y-63048571D01*
X81660476Y-63000952D01*
X81755714Y-62953333D01*
X81946190Y-62953333D01*
X82041428Y-63000952D01*
X82089047Y-63048571D01*
X82136666Y-63143809D01*
X80708095Y-62572380D02*
X80898571Y-62572380D01*
X80993809Y-62620000D01*
X81041428Y-62667619D01*
X81136666Y-62810476D01*
X81184285Y-63000952D01*
X81184285Y-63381904D01*
X81136666Y-63477142D01*
X81089047Y-63524761D01*
X80993809Y-63572380D01*
X80803333Y-63572380D01*
X80708095Y-63524761D01*
X80660476Y-63477142D01*
X80612857Y-63381904D01*
X80612857Y-63143809D01*
X80660476Y-63048571D01*
X80708095Y-63000952D01*
X80803333Y-62953333D01*
X80993809Y-62953333D01*
X81089047Y-63000952D01*
X81136666Y-63048571D01*
X81184285Y-63143809D01*
X79422380Y-62572380D02*
X79422380Y-63381904D01*
X79374761Y-63477142D01*
X79327142Y-63524761D01*
X79231904Y-63572380D01*
X79041428Y-63572380D01*
X78946190Y-63524761D01*
X78898571Y-63477142D01*
X78850952Y-63381904D01*
X78850952Y-62572380D01*
X78422380Y-63286666D02*
X77946190Y-63286666D01*
X78517619Y-63572380D02*
X78184285Y-62572380D01*
X77850952Y-63572380D01*
X76946190Y-63572380D02*
X77279523Y-63096190D01*
X77517619Y-63572380D02*
X77517619Y-62572380D01*
X77136666Y-62572380D01*
X77041428Y-62620000D01*
X76993809Y-62667619D01*
X76946190Y-62762857D01*
X76946190Y-62905714D01*
X76993809Y-63000952D01*
X77041428Y-63048571D01*
X77136666Y-63096190D01*
X77517619Y-63096190D01*
X76660476Y-62572380D02*
X76089047Y-62572380D01*
X76374761Y-63572380D02*
X76374761Y-62572380D01*
X75041428Y-63286666D02*
X74565238Y-63286666D01*
X75136666Y-63572380D02*
X74803333Y-62572380D01*
X74470000Y-63572380D01*
X73708095Y-63572380D02*
X73708095Y-62572380D01*
X73708095Y-63524761D02*
X73803333Y-63572380D01*
X73993809Y-63572380D01*
X74089047Y-63524761D01*
X74136666Y-63477142D01*
X74184285Y-63381904D01*
X74184285Y-63096190D01*
X74136666Y-63000952D01*
X74089047Y-62953333D01*
X73993809Y-62905714D01*
X73803333Y-62905714D01*
X73708095Y-62953333D01*
X72803333Y-63572380D02*
X72803333Y-63048571D01*
X72850952Y-62953333D01*
X72946190Y-62905714D01*
X73136666Y-62905714D01*
X73231904Y-62953333D01*
X72803333Y-63524761D02*
X72898571Y-63572380D01*
X73136666Y-63572380D01*
X73231904Y-63524761D01*
X73279523Y-63429523D01*
X73279523Y-63334285D01*
X73231904Y-63239047D01*
X73136666Y-63191428D01*
X72898571Y-63191428D01*
X72803333Y-63143809D01*
X72327142Y-62905714D02*
X72327142Y-63905714D01*
X72327142Y-62953333D02*
X72231904Y-62905714D01*
X72041428Y-62905714D01*
X71946190Y-62953333D01*
X71898571Y-63000952D01*
X71850952Y-63096190D01*
X71850952Y-63381904D01*
X71898571Y-63477142D01*
X71946190Y-63524761D01*
X72041428Y-63572380D01*
X72231904Y-63572380D01*
X72327142Y-63524761D01*
X71565238Y-62905714D02*
X71184285Y-62905714D01*
X71422380Y-62572380D02*
X71422380Y-63429523D01*
X71374761Y-63524761D01*
X71279523Y-63572380D01*
X71184285Y-63572380D01*
X70470000Y-63524761D02*
X70565238Y-63572380D01*
X70755714Y-63572380D01*
X70850952Y-63524761D01*
X70898571Y-63429523D01*
X70898571Y-63048571D01*
X70850952Y-62953333D01*
X70755714Y-62905714D01*
X70565238Y-62905714D01*
X70470000Y-62953333D01*
X70422380Y-63048571D01*
X70422380Y-63143809D01*
X70898571Y-63239047D01*
X69993809Y-63572380D02*
X69993809Y-62905714D01*
X69993809Y-63096190D02*
X69946190Y-63000952D01*
X69898571Y-62953333D01*
X69803333Y-62905714D01*
X69708095Y-62905714D01*
X68755714Y-62572380D02*
X68422380Y-63572380D01*
X68089047Y-62572380D01*
X67231904Y-63572380D02*
X67803333Y-63572380D01*
X67517619Y-63572380D02*
X67517619Y-62572380D01*
X67612857Y-62715238D01*
X67708095Y-62810476D01*
X67803333Y-62858095D01*
X66803333Y-63477142D02*
X66755714Y-63524761D01*
X66803333Y-63572380D01*
X66850952Y-63524761D01*
X66803333Y-63477142D01*
X66803333Y-63572380D01*
X66136666Y-62572380D02*
X66041428Y-62572380D01*
X65946190Y-62620000D01*
X65898571Y-62667619D01*
X65850952Y-62762857D01*
X65803333Y-62953333D01*
X65803333Y-63191428D01*
X65850952Y-63381904D01*
X65898571Y-63477142D01*
X65946190Y-63524761D01*
X66041428Y-63572380D01*
X66136666Y-63572380D01*
X66231904Y-63524761D01*
X66279523Y-63477142D01*
X66327142Y-63381904D01*
X66374761Y-63191428D01*
X66374761Y-62953333D01*
X66327142Y-62762857D01*
X66279523Y-62667619D01*
X66231904Y-62620000D01*
X66136666Y-62572380D01*
X88779523Y-64222380D02*
X88208095Y-64222380D01*
X88493809Y-65222380D02*
X88493809Y-64222380D01*
X87731904Y-65222380D02*
X87827142Y-65174761D01*
X87874761Y-65127142D01*
X87922380Y-65031904D01*
X87922380Y-64746190D01*
X87874761Y-64650952D01*
X87827142Y-64603333D01*
X87731904Y-64555714D01*
X87589047Y-64555714D01*
X87493809Y-64603333D01*
X87446190Y-64650952D01*
X87398571Y-64746190D01*
X87398571Y-65031904D01*
X87446190Y-65127142D01*
X87493809Y-65174761D01*
X87589047Y-65222380D01*
X87731904Y-65222380D01*
X86208095Y-65222380D02*
X86208095Y-64222380D01*
X86208095Y-64603333D02*
X86112857Y-64555714D01*
X85922380Y-64555714D01*
X85827142Y-64603333D01*
X85779523Y-64650952D01*
X85731904Y-64746190D01*
X85731904Y-65031904D01*
X85779523Y-65127142D01*
X85827142Y-65174761D01*
X85922380Y-65222380D01*
X86112857Y-65222380D01*
X86208095Y-65174761D01*
X84874761Y-64555714D02*
X84874761Y-65222380D01*
X85303333Y-64555714D02*
X85303333Y-65079523D01*
X85255714Y-65174761D01*
X85160476Y-65222380D01*
X85017619Y-65222380D01*
X84922380Y-65174761D01*
X84874761Y-65127142D01*
X84541428Y-64555714D02*
X84160476Y-64555714D01*
X84398571Y-65222380D02*
X84398571Y-64365238D01*
X84350952Y-64270000D01*
X84255714Y-64222380D01*
X84160476Y-64222380D01*
X83970000Y-64555714D02*
X83589047Y-64555714D01*
X83827142Y-65222380D02*
X83827142Y-64365238D01*
X83779523Y-64270000D01*
X83684285Y-64222380D01*
X83589047Y-64222380D01*
X82874761Y-65174761D02*
X82970000Y-65222380D01*
X83160476Y-65222380D01*
X83255714Y-65174761D01*
X83303333Y-65079523D01*
X83303333Y-64698571D01*
X83255714Y-64603333D01*
X83160476Y-64555714D01*
X82970000Y-64555714D01*
X82874761Y-64603333D01*
X82827142Y-64698571D01*
X82827142Y-64793809D01*
X83303333Y-64889047D01*
X82398571Y-65222380D02*
X82398571Y-64555714D01*
X82398571Y-64746190D02*
X82350952Y-64650952D01*
X82303333Y-64603333D01*
X82208095Y-64555714D01*
X82112857Y-64555714D01*
X81160476Y-64222380D02*
X80589047Y-64222380D01*
X80874761Y-65222380D02*
X80874761Y-64222380D01*
X80350952Y-64222380D02*
X79684285Y-65222380D01*
X79684285Y-64222380D02*
X80350952Y-65222380D01*
X79303333Y-65127142D02*
X79255714Y-65174761D01*
X79303333Y-65222380D01*
X79350952Y-65174761D01*
X79303333Y-65127142D01*
X79303333Y-65222380D01*
X79303333Y-64603333D02*
X79255714Y-64650952D01*
X79303333Y-64698571D01*
X79350952Y-64650952D01*
X79303333Y-64603333D01*
X79303333Y-64698571D01*
X78065238Y-64555714D02*
X78065238Y-65412857D01*
X78112857Y-65508095D01*
X78208095Y-65555714D01*
X78255714Y-65555714D01*
X78065238Y-64222380D02*
X78112857Y-64270000D01*
X78065238Y-64317619D01*
X78017619Y-64270000D01*
X78065238Y-64222380D01*
X78065238Y-64317619D01*
X77160476Y-64555714D02*
X77160476Y-65222380D01*
X77589047Y-64555714D02*
X77589047Y-65079523D01*
X77541428Y-65174761D01*
X77446190Y-65222380D01*
X77303333Y-65222380D01*
X77208095Y-65174761D01*
X77160476Y-65127142D01*
X76684285Y-65222380D02*
X76684285Y-64555714D01*
X76684285Y-64650952D02*
X76636666Y-64603333D01*
X76541428Y-64555714D01*
X76398571Y-64555714D01*
X76303333Y-64603333D01*
X76255714Y-64698571D01*
X76255714Y-65222380D01*
X76255714Y-64698571D02*
X76208095Y-64603333D01*
X76112857Y-64555714D01*
X75970000Y-64555714D01*
X75874761Y-64603333D01*
X75827142Y-64698571D01*
X75827142Y-65222380D01*
X75350952Y-64555714D02*
X75350952Y-65555714D01*
X75350952Y-64603333D02*
X75255714Y-64555714D01*
X75065238Y-64555714D01*
X74970000Y-64603333D01*
X74922380Y-64650952D01*
X74874761Y-64746190D01*
X74874761Y-65031904D01*
X74922380Y-65127142D01*
X74970000Y-65174761D01*
X75065238Y-65222380D01*
X75255714Y-65222380D01*
X75350952Y-65174761D01*
X74065238Y-65174761D02*
X74160476Y-65222380D01*
X74350952Y-65222380D01*
X74446190Y-65174761D01*
X74493809Y-65079523D01*
X74493809Y-64698571D01*
X74446190Y-64603333D01*
X74350952Y-64555714D01*
X74160476Y-64555714D01*
X74065238Y-64603333D01*
X74017619Y-64698571D01*
X74017619Y-64793809D01*
X74493809Y-64889047D01*
X73589047Y-65222380D02*
X73589047Y-64555714D01*
X73589047Y-64746190D02*
X73541428Y-64650952D01*
X73493809Y-64603333D01*
X73398571Y-64555714D01*
X73303333Y-64555714D01*
X71636666Y-65222380D02*
X71970000Y-64746190D01*
X72208095Y-65222380D02*
X72208095Y-64222380D01*
X71827142Y-64222380D01*
X71731904Y-64270000D01*
X71684285Y-64317619D01*
X71636666Y-64412857D01*
X71636666Y-64555714D01*
X71684285Y-64650952D01*
X71731904Y-64698571D01*
X71827142Y-64746190D01*
X72208095Y-64746190D01*
X71255714Y-64317619D02*
X71208095Y-64270000D01*
X71112857Y-64222380D01*
X70874761Y-64222380D01*
X70779523Y-64270000D01*
X70731904Y-64317619D01*
X70684285Y-64412857D01*
X70684285Y-64508095D01*
X70731904Y-64650952D01*
X71303333Y-65222380D01*
X70684285Y-65222380D01*
X70208095Y-65174761D02*
X70208095Y-65222380D01*
X70255714Y-65317619D01*
X70303333Y-65365238D01*
X68446190Y-65222380D02*
X68779523Y-64746190D01*
X69017619Y-65222380D02*
X69017619Y-64222380D01*
X68636666Y-64222380D01*
X68541428Y-64270000D01*
X68493809Y-64317619D01*
X68446190Y-64412857D01*
X68446190Y-64555714D01*
X68493809Y-64650952D01*
X68541428Y-64698571D01*
X68636666Y-64746190D01*
X69017619Y-64746190D01*
X68112857Y-64222380D02*
X67493809Y-64222380D01*
X67827142Y-64603333D01*
X67684285Y-64603333D01*
X67589047Y-64650952D01*
X67541428Y-64698571D01*
X67493809Y-64793809D01*
X67493809Y-65031904D01*
X67541428Y-65127142D01*
X67589047Y-65174761D01*
X67684285Y-65222380D01*
X67970000Y-65222380D01*
X68065238Y-65174761D01*
X68112857Y-65127142D01*
X67017619Y-65174761D02*
X67017619Y-65222380D01*
X67065238Y-65317619D01*
X67112857Y-65365238D01*
X84827142Y-66824761D02*
X84922380Y-66872380D01*
X85112857Y-66872380D01*
X85208095Y-66824761D01*
X85255714Y-66729523D01*
X85255714Y-66348571D01*
X85208095Y-66253333D01*
X85112857Y-66205714D01*
X84922380Y-66205714D01*
X84827142Y-66253333D01*
X84779523Y-66348571D01*
X84779523Y-66443809D01*
X85255714Y-66539047D01*
X84208095Y-66872380D02*
X84303333Y-66824761D01*
X84350952Y-66729523D01*
X84350952Y-65872380D01*
X83874761Y-66824761D02*
X83779523Y-66872380D01*
X83589047Y-66872380D01*
X83493809Y-66824761D01*
X83446190Y-66729523D01*
X83446190Y-66681904D01*
X83493809Y-66586666D01*
X83589047Y-66539047D01*
X83731904Y-66539047D01*
X83827142Y-66491428D01*
X83874761Y-66396190D01*
X83874761Y-66348571D01*
X83827142Y-66253333D01*
X83731904Y-66205714D01*
X83589047Y-66205714D01*
X83493809Y-66253333D01*
X82636666Y-66824761D02*
X82731904Y-66872380D01*
X82922380Y-66872380D01*
X83017619Y-66824761D01*
X83065238Y-66729523D01*
X83065238Y-66348571D01*
X83017619Y-66253333D01*
X82922380Y-66205714D01*
X82731904Y-66205714D01*
X82636666Y-66253333D01*
X82589047Y-66348571D01*
X82589047Y-66443809D01*
X83065238Y-66539047D01*
X81398571Y-66205714D02*
X81398571Y-67062857D01*
X81446190Y-67158095D01*
X81541428Y-67205714D01*
X81589047Y-67205714D01*
X81398571Y-65872380D02*
X81446190Y-65920000D01*
X81398571Y-65967619D01*
X81350952Y-65920000D01*
X81398571Y-65872380D01*
X81398571Y-65967619D01*
X80493809Y-66205714D02*
X80493809Y-66872380D01*
X80922380Y-66205714D02*
X80922380Y-66729523D01*
X80874761Y-66824761D01*
X80779523Y-66872380D01*
X80636666Y-66872380D01*
X80541428Y-66824761D01*
X80493809Y-66777142D01*
X80017619Y-66872380D02*
X80017619Y-66205714D01*
X80017619Y-66300952D02*
X79970000Y-66253333D01*
X79874761Y-66205714D01*
X79731904Y-66205714D01*
X79636666Y-66253333D01*
X79589047Y-66348571D01*
X79589047Y-66872380D01*
X79589047Y-66348571D02*
X79541428Y-66253333D01*
X79446190Y-66205714D01*
X79303333Y-66205714D01*
X79208095Y-66253333D01*
X79160476Y-66348571D01*
X79160476Y-66872380D01*
X78684285Y-66205714D02*
X78684285Y-67205714D01*
X78684285Y-66253333D02*
X78589047Y-66205714D01*
X78398571Y-66205714D01*
X78303333Y-66253333D01*
X78255714Y-66300952D01*
X78208095Y-66396190D01*
X78208095Y-66681904D01*
X78255714Y-66777142D01*
X78303333Y-66824761D01*
X78398571Y-66872380D01*
X78589047Y-66872380D01*
X78684285Y-66824761D01*
X77398571Y-66824761D02*
X77493809Y-66872380D01*
X77684285Y-66872380D01*
X77779523Y-66824761D01*
X77827142Y-66729523D01*
X77827142Y-66348571D01*
X77779523Y-66253333D01*
X77684285Y-66205714D01*
X77493809Y-66205714D01*
X77398571Y-66253333D01*
X77350952Y-66348571D01*
X77350952Y-66443809D01*
X77827142Y-66539047D01*
X76922380Y-66872380D02*
X76922380Y-66205714D01*
X76922380Y-66396190D02*
X76874761Y-66300952D01*
X76827142Y-66253333D01*
X76731904Y-66205714D01*
X76636666Y-66205714D01*
X75398571Y-66872380D02*
X75493809Y-66824761D01*
X75541428Y-66777142D01*
X75589047Y-66681904D01*
X75589047Y-66396190D01*
X75541428Y-66300952D01*
X75493809Y-66253333D01*
X75398571Y-66205714D01*
X75255714Y-66205714D01*
X75160476Y-66253333D01*
X75112857Y-66300952D01*
X75065238Y-66396190D01*
X75065238Y-66681904D01*
X75112857Y-66777142D01*
X75160476Y-66824761D01*
X75255714Y-66872380D01*
X75398571Y-66872380D01*
X74636666Y-66205714D02*
X74636666Y-66872380D01*
X74636666Y-66300952D02*
X74589047Y-66253333D01*
X74493809Y-66205714D01*
X74350952Y-66205714D01*
X74255714Y-66253333D01*
X74208095Y-66348571D01*
X74208095Y-66872380D01*
X73589047Y-66872380D02*
X73684285Y-66824761D01*
X73731904Y-66729523D01*
X73731904Y-65872380D01*
X73303333Y-66205714D02*
X73065238Y-66872380D01*
X72827142Y-66205714D02*
X73065238Y-66872380D01*
X73160476Y-67110476D01*
X73208095Y-67158095D01*
X73303333Y-67205714D01*
X71112857Y-66872380D02*
X71446190Y-66396190D01*
X71684285Y-66872380D02*
X71684285Y-65872380D01*
X71303333Y-65872380D01*
X71208095Y-65920000D01*
X71160476Y-65967619D01*
X71112857Y-66062857D01*
X71112857Y-66205714D01*
X71160476Y-66300952D01*
X71208095Y-66348571D01*
X71303333Y-66396190D01*
X71684285Y-66396190D01*
X70160476Y-66872380D02*
X70731904Y-66872380D01*
X70446190Y-66872380D02*
X70446190Y-65872380D01*
X70541428Y-66015238D01*
X70636666Y-66110476D01*
X70731904Y-66158095D01*
X69731904Y-66777142D02*
X69684285Y-66824761D01*
X69731904Y-66872380D01*
X69779523Y-66824761D01*
X69731904Y-66777142D01*
X69731904Y-66872380D01*
D11*
G04 #@! TO.C,J3*
X90170000Y-74930000D02*
X91440000Y-74930000D01*
X90170000Y-73660000D02*
X90170000Y-74930000D01*
X92482929Y-60580000D02*
X92880000Y-60580000D01*
X92482929Y-61340000D02*
X92880000Y-61340000D01*
X101540000Y-60580000D02*
X95540000Y-60580000D01*
X101540000Y-61340000D02*
X101540000Y-60580000D01*
X95540000Y-61340000D02*
X101540000Y-61340000D01*
X92880000Y-62230000D02*
X95540000Y-62230000D01*
X92482929Y-63120000D02*
X92880000Y-63120000D01*
X92482929Y-63880000D02*
X92880000Y-63880000D01*
X101540000Y-63120000D02*
X95540000Y-63120000D01*
X101540000Y-63880000D02*
X101540000Y-63120000D01*
X95540000Y-63880000D02*
X101540000Y-63880000D01*
X92880000Y-64770000D02*
X95540000Y-64770000D01*
X92482929Y-65660000D02*
X92880000Y-65660000D01*
X92482929Y-66420000D02*
X92880000Y-66420000D01*
X101540000Y-65660000D02*
X95540000Y-65660000D01*
X101540000Y-66420000D02*
X101540000Y-65660000D01*
X95540000Y-66420000D02*
X101540000Y-66420000D01*
X92880000Y-67310000D02*
X95540000Y-67310000D01*
X92482929Y-68200000D02*
X92880000Y-68200000D01*
X92482929Y-68960000D02*
X92880000Y-68960000D01*
X101540000Y-68200000D02*
X95540000Y-68200000D01*
X101540000Y-68960000D02*
X101540000Y-68200000D01*
X95540000Y-68960000D02*
X101540000Y-68960000D01*
X92880000Y-69850000D02*
X95540000Y-69850000D01*
X92482929Y-70740000D02*
X92880000Y-70740000D01*
X92482929Y-71500000D02*
X92880000Y-71500000D01*
X101540000Y-70740000D02*
X95540000Y-70740000D01*
X101540000Y-71500000D02*
X101540000Y-70740000D01*
X95540000Y-71500000D02*
X101540000Y-71500000D01*
X92880000Y-72390000D02*
X95540000Y-72390000D01*
X92550000Y-73280000D02*
X92880000Y-73280000D01*
X92550000Y-74040000D02*
X92880000Y-74040000D01*
X95540000Y-73380000D02*
X101540000Y-73380000D01*
X95540000Y-73500000D02*
X101540000Y-73500000D01*
X95540000Y-73620000D02*
X101540000Y-73620000D01*
X95540000Y-73740000D02*
X101540000Y-73740000D01*
X95540000Y-73860000D02*
X101540000Y-73860000D01*
X95540000Y-73980000D02*
X101540000Y-73980000D01*
X101540000Y-73280000D02*
X95540000Y-73280000D01*
X101540000Y-74040000D02*
X101540000Y-73280000D01*
X95540000Y-74040000D02*
X101540000Y-74040000D01*
X95540000Y-74990000D02*
X92880000Y-74990000D01*
X95540000Y-59630000D02*
X95540000Y-74990000D01*
X92880000Y-59630000D02*
X95540000Y-59630000D01*
X92880000Y-74990000D02*
X92880000Y-59630000D01*
G04 #@! TO.C,C1*
X78173733Y-65280000D02*
X78516267Y-65280000D01*
X78173733Y-64260000D02*
X78516267Y-64260000D01*
G04 #@! TO.C,J3*
D10*
X96158333Y-75382380D02*
X96158333Y-76096666D01*
X96205952Y-76239523D01*
X96301190Y-76334761D01*
X96444047Y-76382380D01*
X96539285Y-76382380D01*
X95777380Y-75382380D02*
X95158333Y-75382380D01*
X95491666Y-75763333D01*
X95348809Y-75763333D01*
X95253571Y-75810952D01*
X95205952Y-75858571D01*
X95158333Y-75953809D01*
X95158333Y-76191904D01*
X95205952Y-76287142D01*
X95253571Y-76334761D01*
X95348809Y-76382380D01*
X95634523Y-76382380D01*
X95729761Y-76334761D01*
X95777380Y-76287142D01*
G04 #@! TO.C,C1*
X78511666Y-66557142D02*
X78559285Y-66604761D01*
X78702142Y-66652380D01*
X78797380Y-66652380D01*
X78940238Y-66604761D01*
X79035476Y-66509523D01*
X79083095Y-66414285D01*
X79130714Y-66223809D01*
X79130714Y-66080952D01*
X79083095Y-65890476D01*
X79035476Y-65795238D01*
X78940238Y-65700000D01*
X78797380Y-65652380D01*
X78702142Y-65652380D01*
X78559285Y-65700000D01*
X78511666Y-65747619D01*
X77559285Y-66652380D02*
X78130714Y-66652380D01*
X77845000Y-66652380D02*
X77845000Y-65652380D01*
X77940238Y-65795238D01*
X78035476Y-65890476D01*
X78130714Y-65938095D01*
G04 #@! TD*
M02*
