G04 #@! TF.GenerationSoftware,KiCad,Pcbnew,5.0.0-rc3-unknown-14ce5182~65~ubuntu18.04.1*
G04 #@! TF.CreationDate,2018-07-15T20:03:12+01:00*
G04 #@! TF.ProjectId,SEN-14066-adapter,53454E2D31343036362D616461707465,rev?*
G04 #@! TF.SameCoordinates,Original*
G04 #@! TF.FileFunction,Legend,Top*
G04 #@! TF.FilePolarity,Positive*
%FSLAX46Y46*%
G04 Gerber Fmt 4.6, Leading zero omitted, Abs format (unit mm)*
G04 Created by KiCad (PCBNEW 5.0.0-rc3-unknown-14ce5182~65~ubuntu18.04.1) date Sun Jul 15 20:03:12 2018*
%MOMM*%
%LPD*%
G01*
G04 APERTURE LIST*
%ADD10C,0.100000*%
%ADD11C,0.120000*%
%ADD12C,0.150000*%
G04 APERTURE END LIST*
D10*
X73168095Y-63587380D02*
X73834761Y-63587380D01*
X73406190Y-64587380D01*
X74644285Y-63920714D02*
X74644285Y-64587380D01*
X74406190Y-63539761D02*
X74168095Y-64254047D01*
X74787142Y-64254047D01*
X75358571Y-63587380D02*
X75453809Y-63587380D01*
X75549047Y-63635000D01*
X75596666Y-63682619D01*
X75644285Y-63777857D01*
X75691904Y-63968333D01*
X75691904Y-64206428D01*
X75644285Y-64396904D01*
X75596666Y-64492142D01*
X75549047Y-64539761D01*
X75453809Y-64587380D01*
X75358571Y-64587380D01*
X75263333Y-64539761D01*
X75215714Y-64492142D01*
X75168095Y-64396904D01*
X75120476Y-64206428D01*
X75120476Y-63968333D01*
X75168095Y-63777857D01*
X75215714Y-63682619D01*
X75263333Y-63635000D01*
X75358571Y-63587380D01*
X76549047Y-63920714D02*
X76549047Y-64587380D01*
X76310952Y-63539761D02*
X76072857Y-64254047D01*
X76691904Y-64254047D01*
X73469523Y-71207380D02*
X72993333Y-71207380D01*
X72945714Y-71683571D01*
X72993333Y-71635952D01*
X73088571Y-71588333D01*
X73326666Y-71588333D01*
X73421904Y-71635952D01*
X73469523Y-71683571D01*
X73517142Y-71778809D01*
X73517142Y-72016904D01*
X73469523Y-72112142D01*
X73421904Y-72159761D01*
X73326666Y-72207380D01*
X73088571Y-72207380D01*
X72993333Y-72159761D01*
X72945714Y-72112142D01*
X73802857Y-71207380D02*
X74136190Y-72207380D01*
X74469523Y-71207380D01*
X78573333Y-72207380D02*
X78240000Y-71731190D01*
X78001904Y-72207380D02*
X78001904Y-71207380D01*
X78382857Y-71207380D01*
X78478095Y-71255000D01*
X78525714Y-71302619D01*
X78573333Y-71397857D01*
X78573333Y-71540714D01*
X78525714Y-71635952D01*
X78478095Y-71683571D01*
X78382857Y-71731190D01*
X78001904Y-71731190D01*
X78906666Y-71207380D02*
X79573333Y-72207380D01*
X79573333Y-71207380D02*
X78906666Y-72207380D01*
X75438095Y-71207380D02*
X76009523Y-71207380D01*
X75723809Y-72207380D02*
X75723809Y-71207380D01*
X76247619Y-71207380D02*
X76914285Y-72207380D01*
X76914285Y-71207380D02*
X76247619Y-72207380D01*
X65238333Y-63952380D02*
X64905000Y-63476190D01*
X64666904Y-63952380D02*
X64666904Y-62952380D01*
X65047857Y-62952380D01*
X65143095Y-63000000D01*
X65190714Y-63047619D01*
X65238333Y-63142857D01*
X65238333Y-63285714D01*
X65190714Y-63380952D01*
X65143095Y-63428571D01*
X65047857Y-63476190D01*
X64666904Y-63476190D01*
X65571666Y-62952380D02*
X66238333Y-63952380D01*
X66238333Y-62952380D02*
X65571666Y-63952380D01*
X64643095Y-65492380D02*
X65214523Y-65492380D01*
X64928809Y-66492380D02*
X64928809Y-65492380D01*
X65452619Y-65492380D02*
X66119285Y-66492380D01*
X66119285Y-65492380D02*
X65452619Y-66492380D01*
X89344523Y-68032380D02*
X88868333Y-68032380D01*
X88820714Y-68508571D01*
X88868333Y-68460952D01*
X88963571Y-68413333D01*
X89201666Y-68413333D01*
X89296904Y-68460952D01*
X89344523Y-68508571D01*
X89392142Y-68603809D01*
X89392142Y-68841904D01*
X89344523Y-68937142D01*
X89296904Y-68984761D01*
X89201666Y-69032380D01*
X88963571Y-69032380D01*
X88868333Y-68984761D01*
X88820714Y-68937142D01*
X89677857Y-68032380D02*
X90011190Y-69032380D01*
X90344523Y-68032380D01*
X65278095Y-73795000D02*
X65182857Y-73747380D01*
X65040000Y-73747380D01*
X64897142Y-73795000D01*
X64801904Y-73890238D01*
X64754285Y-73985476D01*
X64706666Y-74175952D01*
X64706666Y-74318809D01*
X64754285Y-74509285D01*
X64801904Y-74604523D01*
X64897142Y-74699761D01*
X65040000Y-74747380D01*
X65135238Y-74747380D01*
X65278095Y-74699761D01*
X65325714Y-74652142D01*
X65325714Y-74318809D01*
X65135238Y-74318809D01*
X65754285Y-74747380D02*
X65754285Y-73747380D01*
X66325714Y-74747380D01*
X66325714Y-73747380D01*
X66801904Y-74747380D02*
X66801904Y-73747380D01*
X67040000Y-73747380D01*
X67182857Y-73795000D01*
X67278095Y-73890238D01*
X67325714Y-73985476D01*
X67373333Y-74175952D01*
X67373333Y-74318809D01*
X67325714Y-74509285D01*
X67278095Y-74604523D01*
X67182857Y-74699761D01*
X67040000Y-74747380D01*
X66801904Y-74747380D01*
X65214523Y-68032380D02*
X64738333Y-68032380D01*
X64690714Y-68508571D01*
X64738333Y-68460952D01*
X64833571Y-68413333D01*
X65071666Y-68413333D01*
X65166904Y-68460952D01*
X65214523Y-68508571D01*
X65262142Y-68603809D01*
X65262142Y-68841904D01*
X65214523Y-68937142D01*
X65166904Y-68984761D01*
X65071666Y-69032380D01*
X64833571Y-69032380D01*
X64738333Y-68984761D01*
X64690714Y-68937142D01*
X65547857Y-68032380D02*
X65881190Y-69032380D01*
X66214523Y-68032380D01*
X83058095Y-73795000D02*
X82962857Y-73747380D01*
X82820000Y-73747380D01*
X82677142Y-73795000D01*
X82581904Y-73890238D01*
X82534285Y-73985476D01*
X82486666Y-74175952D01*
X82486666Y-74318809D01*
X82534285Y-74509285D01*
X82581904Y-74604523D01*
X82677142Y-74699761D01*
X82820000Y-74747380D01*
X82915238Y-74747380D01*
X83058095Y-74699761D01*
X83105714Y-74652142D01*
X83105714Y-74318809D01*
X82915238Y-74318809D01*
X83534285Y-74747380D02*
X83534285Y-73747380D01*
X84105714Y-74747380D01*
X84105714Y-73747380D01*
X84581904Y-74747380D02*
X84581904Y-73747380D01*
X84820000Y-73747380D01*
X84962857Y-73795000D01*
X85058095Y-73890238D01*
X85105714Y-73985476D01*
X85153333Y-74175952D01*
X85153333Y-74318809D01*
X85105714Y-74509285D01*
X85058095Y-74604523D01*
X84962857Y-74699761D01*
X84820000Y-74747380D01*
X84581904Y-74747380D01*
X88138095Y-73795000D02*
X88042857Y-73747380D01*
X87900000Y-73747380D01*
X87757142Y-73795000D01*
X87661904Y-73890238D01*
X87614285Y-73985476D01*
X87566666Y-74175952D01*
X87566666Y-74318809D01*
X87614285Y-74509285D01*
X87661904Y-74604523D01*
X87757142Y-74699761D01*
X87900000Y-74747380D01*
X87995238Y-74747380D01*
X88138095Y-74699761D01*
X88185714Y-74652142D01*
X88185714Y-74318809D01*
X87995238Y-74318809D01*
X88614285Y-74747380D02*
X88614285Y-73747380D01*
X89185714Y-74747380D01*
X89185714Y-73747380D01*
X89661904Y-74747380D02*
X89661904Y-73747380D01*
X89900000Y-73747380D01*
X90042857Y-73795000D01*
X90138095Y-73890238D01*
X90185714Y-73985476D01*
X90233333Y-74175952D01*
X90233333Y-74318809D01*
X90185714Y-74509285D01*
X90138095Y-74604523D01*
X90042857Y-74699761D01*
X89900000Y-74747380D01*
X89661904Y-74747380D01*
X66143333Y-60745714D02*
X65381428Y-61031428D01*
X66143333Y-61317142D01*
X66952857Y-60888571D02*
X66619523Y-60888571D01*
X66619523Y-61412380D02*
X66619523Y-60412380D01*
X67095714Y-60412380D01*
X67333809Y-60412380D02*
X67905238Y-60412380D01*
X67619523Y-61412380D02*
X67619523Y-60412380D01*
X68238571Y-61412380D02*
X68238571Y-60412380D01*
X68476666Y-60412380D01*
X68619523Y-60460000D01*
X68714761Y-60555238D01*
X68762380Y-60650476D01*
X68810000Y-60840952D01*
X68810000Y-60983809D01*
X68762380Y-61174285D01*
X68714761Y-61269523D01*
X68619523Y-61364761D01*
X68476666Y-61412380D01*
X68238571Y-61412380D01*
X69238571Y-61412380D02*
X69238571Y-60412380D01*
X84883809Y-71572380D02*
X84550476Y-71096190D01*
X84312380Y-71572380D02*
X84312380Y-70572380D01*
X84693333Y-70572380D01*
X84788571Y-70620000D01*
X84836190Y-70667619D01*
X84883809Y-70762857D01*
X84883809Y-70905714D01*
X84836190Y-71000952D01*
X84788571Y-71048571D01*
X84693333Y-71096190D01*
X84312380Y-71096190D01*
X85645714Y-71048571D02*
X85312380Y-71048571D01*
X85312380Y-71572380D02*
X85312380Y-70572380D01*
X85788571Y-70572380D01*
X86169523Y-71572380D02*
X86169523Y-70572380D01*
X86645714Y-71572380D02*
X86645714Y-70572380D01*
X86883809Y-70572380D01*
X87026666Y-70620000D01*
X87121904Y-70715238D01*
X87169523Y-70810476D01*
X87217142Y-71000952D01*
X87217142Y-71143809D01*
X87169523Y-71334285D01*
X87121904Y-71429523D01*
X87026666Y-71524761D01*
X86883809Y-71572380D01*
X86645714Y-71572380D01*
X87645714Y-70905714D02*
X88407619Y-71191428D01*
X87645714Y-71477142D01*
D11*
G04 #@! TO.C,U1*
X69790000Y-63770000D02*
G75*
G02X69790000Y-65770000I0J-1000000D01*
G01*
X69790000Y-65770000D02*
X69790000Y-67420000D01*
X69790000Y-67420000D02*
X87690000Y-67420000D01*
X87690000Y-67420000D02*
X87690000Y-62120000D01*
X87690000Y-62120000D02*
X69790000Y-62120000D01*
X69790000Y-62120000D02*
X69790000Y-63770000D01*
G04 #@! TO.C,J1*
X62060000Y-74990000D02*
X62060000Y-59630000D01*
X62060000Y-59630000D02*
X59400000Y-59630000D01*
X59400000Y-59630000D02*
X59400000Y-74990000D01*
X59400000Y-74990000D02*
X62060000Y-74990000D01*
X59400000Y-74040000D02*
X53400000Y-74040000D01*
X53400000Y-74040000D02*
X53400000Y-73280000D01*
X53400000Y-73280000D02*
X59400000Y-73280000D01*
X59400000Y-73980000D02*
X53400000Y-73980000D01*
X59400000Y-73860000D02*
X53400000Y-73860000D01*
X59400000Y-73740000D02*
X53400000Y-73740000D01*
X59400000Y-73620000D02*
X53400000Y-73620000D01*
X59400000Y-73500000D02*
X53400000Y-73500000D01*
X59400000Y-73380000D02*
X53400000Y-73380000D01*
X62390000Y-74040000D02*
X62060000Y-74040000D01*
X62390000Y-73280000D02*
X62060000Y-73280000D01*
X62060000Y-72390000D02*
X59400000Y-72390000D01*
X59400000Y-71500000D02*
X53400000Y-71500000D01*
X53400000Y-71500000D02*
X53400000Y-70740000D01*
X53400000Y-70740000D02*
X59400000Y-70740000D01*
X62457071Y-71500000D02*
X62060000Y-71500000D01*
X62457071Y-70740000D02*
X62060000Y-70740000D01*
X62060000Y-69850000D02*
X59400000Y-69850000D01*
X59400000Y-68960000D02*
X53400000Y-68960000D01*
X53400000Y-68960000D02*
X53400000Y-68200000D01*
X53400000Y-68200000D02*
X59400000Y-68200000D01*
X62457071Y-68960000D02*
X62060000Y-68960000D01*
X62457071Y-68200000D02*
X62060000Y-68200000D01*
X62060000Y-67310000D02*
X59400000Y-67310000D01*
X59400000Y-66420000D02*
X53400000Y-66420000D01*
X53400000Y-66420000D02*
X53400000Y-65660000D01*
X53400000Y-65660000D02*
X59400000Y-65660000D01*
X62457071Y-66420000D02*
X62060000Y-66420000D01*
X62457071Y-65660000D02*
X62060000Y-65660000D01*
X62060000Y-64770000D02*
X59400000Y-64770000D01*
X59400000Y-63880000D02*
X53400000Y-63880000D01*
X53400000Y-63880000D02*
X53400000Y-63120000D01*
X53400000Y-63120000D02*
X59400000Y-63120000D01*
X62457071Y-63880000D02*
X62060000Y-63880000D01*
X62457071Y-63120000D02*
X62060000Y-63120000D01*
X62060000Y-62230000D02*
X59400000Y-62230000D01*
X59400000Y-61340000D02*
X53400000Y-61340000D01*
X53400000Y-61340000D02*
X53400000Y-60580000D01*
X53400000Y-60580000D02*
X59400000Y-60580000D01*
X62457071Y-61340000D02*
X62060000Y-61340000D01*
X62457071Y-60580000D02*
X62060000Y-60580000D01*
X64770000Y-73660000D02*
X64770000Y-74930000D01*
X64770000Y-74930000D02*
X63500000Y-74930000D01*
G04 #@! TO.C,J2*
X82610000Y-75100000D02*
X69790000Y-75100000D01*
X69790000Y-75100000D02*
X69790000Y-77760000D01*
X69790000Y-77760000D02*
X82610000Y-77760000D01*
X82610000Y-77760000D02*
X82610000Y-75100000D01*
X81660000Y-77760000D02*
X81660000Y-83760000D01*
X81660000Y-83760000D02*
X80900000Y-83760000D01*
X80900000Y-83760000D02*
X80900000Y-77760000D01*
X81600000Y-77760000D02*
X81600000Y-83760000D01*
X81480000Y-77760000D02*
X81480000Y-83760000D01*
X81360000Y-77760000D02*
X81360000Y-83760000D01*
X81240000Y-77760000D02*
X81240000Y-83760000D01*
X81120000Y-77760000D02*
X81120000Y-83760000D01*
X81000000Y-77760000D02*
X81000000Y-83760000D01*
X81660000Y-74770000D02*
X81660000Y-75100000D01*
X80900000Y-74770000D02*
X80900000Y-75100000D01*
X80010000Y-75100000D02*
X80010000Y-77760000D01*
X79120000Y-77760000D02*
X79120000Y-83760000D01*
X79120000Y-83760000D02*
X78360000Y-83760000D01*
X78360000Y-83760000D02*
X78360000Y-77760000D01*
X79120000Y-74702929D02*
X79120000Y-75100000D01*
X78360000Y-74702929D02*
X78360000Y-75100000D01*
X77470000Y-75100000D02*
X77470000Y-77760000D01*
X76580000Y-77760000D02*
X76580000Y-83760000D01*
X76580000Y-83760000D02*
X75820000Y-83760000D01*
X75820000Y-83760000D02*
X75820000Y-77760000D01*
X76580000Y-74702929D02*
X76580000Y-75100000D01*
X75820000Y-74702929D02*
X75820000Y-75100000D01*
X74930000Y-75100000D02*
X74930000Y-77760000D01*
X74040000Y-77760000D02*
X74040000Y-83760000D01*
X74040000Y-83760000D02*
X73280000Y-83760000D01*
X73280000Y-83760000D02*
X73280000Y-77760000D01*
X74040000Y-74702929D02*
X74040000Y-75100000D01*
X73280000Y-74702929D02*
X73280000Y-75100000D01*
X72390000Y-75100000D02*
X72390000Y-77760000D01*
X71500000Y-77760000D02*
X71500000Y-83760000D01*
X71500000Y-83760000D02*
X70740000Y-83760000D01*
X70740000Y-83760000D02*
X70740000Y-77760000D01*
X71500000Y-74702929D02*
X71500000Y-75100000D01*
X70740000Y-74702929D02*
X70740000Y-75100000D01*
X81280000Y-72390000D02*
X82550000Y-72390000D01*
X82550000Y-72390000D02*
X82550000Y-73660000D01*
G04 #@! TO.C,R1*
X66800000Y-65336267D02*
X66800000Y-64993733D01*
X67820000Y-65336267D02*
X67820000Y-64993733D01*
G04 #@! TO.C,R2*
X67820000Y-72956267D02*
X67820000Y-72613733D01*
X66800000Y-72956267D02*
X66800000Y-72613733D01*
G04 #@! TO.C,R3*
X90045000Y-65473733D02*
X90045000Y-65816267D01*
X89025000Y-65473733D02*
X89025000Y-65816267D01*
G04 #@! TO.C,U1*
D12*
X71207380Y-65531904D02*
X72016904Y-65531904D01*
X72112142Y-65484285D01*
X72159761Y-65436666D01*
X72207380Y-65341428D01*
X72207380Y-65150952D01*
X72159761Y-65055714D01*
X72112142Y-65008095D01*
X72016904Y-64960476D01*
X71207380Y-64960476D01*
X72207380Y-63960476D02*
X72207380Y-64531904D01*
X72207380Y-64246190D02*
X71207380Y-64246190D01*
X71350238Y-64341428D01*
X71445476Y-64436666D01*
X71493095Y-64531904D01*
G04 #@! TO.C,J1*
X58781666Y-75382380D02*
X58781666Y-76096666D01*
X58734047Y-76239523D01*
X58638809Y-76334761D01*
X58495952Y-76382380D01*
X58400714Y-76382380D01*
X59781666Y-76382380D02*
X59210238Y-76382380D01*
X59495952Y-76382380D02*
X59495952Y-75382380D01*
X59400714Y-75525238D01*
X59305476Y-75620476D01*
X59210238Y-75668095D01*
G04 #@! TO.C,J2*
X83002380Y-78378333D02*
X83716666Y-78378333D01*
X83859523Y-78425952D01*
X83954761Y-78521190D01*
X84002380Y-78664047D01*
X84002380Y-78759285D01*
X83097619Y-77949761D02*
X83050000Y-77902142D01*
X83002380Y-77806904D01*
X83002380Y-77568809D01*
X83050000Y-77473571D01*
X83097619Y-77425952D01*
X83192857Y-77378333D01*
X83288095Y-77378333D01*
X83430952Y-77425952D01*
X84002380Y-77997380D01*
X84002380Y-77378333D01*
G04 #@! TO.C,R1*
X69032380Y-65331666D02*
X68556190Y-65665000D01*
X69032380Y-65903095D02*
X68032380Y-65903095D01*
X68032380Y-65522142D01*
X68080000Y-65426904D01*
X68127619Y-65379285D01*
X68222857Y-65331666D01*
X68365714Y-65331666D01*
X68460952Y-65379285D01*
X68508571Y-65426904D01*
X68556190Y-65522142D01*
X68556190Y-65903095D01*
X69032380Y-64379285D02*
X69032380Y-64950714D01*
X69032380Y-64665000D02*
X68032380Y-64665000D01*
X68175238Y-64760238D01*
X68270476Y-64855476D01*
X68318095Y-64950714D01*
G04 #@! TO.C,R2*
X69032380Y-72951666D02*
X68556190Y-73285000D01*
X69032380Y-73523095D02*
X68032380Y-73523095D01*
X68032380Y-73142142D01*
X68080000Y-73046904D01*
X68127619Y-72999285D01*
X68222857Y-72951666D01*
X68365714Y-72951666D01*
X68460952Y-72999285D01*
X68508571Y-73046904D01*
X68556190Y-73142142D01*
X68556190Y-73523095D01*
X68127619Y-72570714D02*
X68080000Y-72523095D01*
X68032380Y-72427857D01*
X68032380Y-72189761D01*
X68080000Y-72094523D01*
X68127619Y-72046904D01*
X68222857Y-71999285D01*
X68318095Y-71999285D01*
X68460952Y-72046904D01*
X69032380Y-72618333D01*
X69032380Y-71999285D01*
G04 #@! TO.C,R3*
X91417380Y-65811666D02*
X90941190Y-66145000D01*
X91417380Y-66383095D02*
X90417380Y-66383095D01*
X90417380Y-66002142D01*
X90465000Y-65906904D01*
X90512619Y-65859285D01*
X90607857Y-65811666D01*
X90750714Y-65811666D01*
X90845952Y-65859285D01*
X90893571Y-65906904D01*
X90941190Y-66002142D01*
X90941190Y-66383095D01*
X90417380Y-65478333D02*
X90417380Y-64859285D01*
X90798333Y-65192619D01*
X90798333Y-65049761D01*
X90845952Y-64954523D01*
X90893571Y-64906904D01*
X90988809Y-64859285D01*
X91226904Y-64859285D01*
X91322142Y-64906904D01*
X91369761Y-64954523D01*
X91417380Y-65049761D01*
X91417380Y-65335476D01*
X91369761Y-65430714D01*
X91322142Y-65478333D01*
G04 #@! TD*
M02*
